<svg xmlns="http://www.w3.org/2000/svg" xmlns:xlink="http://www.w3.org/1999/xlink" viewBox="0 0 121 121"><defs><style>.cls-1{fill:url(#linear-gradient);}.cls-2,.cls-3{fill:none;stroke-miterlimit:10;}.cls-2{stroke:#eba907;}.cls-3{stroke:#4d4d4d;stroke-width:3px;}.cls-4{fill:#4d4d4d;}</style><linearGradient id="linear-gradient" x1="60.5" y1="120.5" x2="60.5" y2="0.5" gradientUnits="userSpaceOnUse"><stop offset="0" stop-color="#edbd33"/><stop offset="1" stop-color="#facb56"/></linearGradient></defs><title>Asset 15</title><g id="Layer_2" data-name="Layer 2"><g id="Layer_2-2" data-name="Layer 2"><circle class="cls-1" cx="60.5" cy="60.5" r="60"/><circle class="cls-2" cx="60.5" cy="60.5" r="60"/><path class="cls-3" d="M31.07,76.51c-3.26.16-5.35-1.79-7.23-4.06a3.63,3.63,0,0,1-1.1-2.28c-.06-1.74,1-2.56,2.22-3.41a4.63,4.63,0,0,0,.56-.28l12.1-8.18Q43.79,54.13,50,50c3.36-2.28,6.7-4.57,10.05-6.86L61.84,42a10.46,10.46,0,0,1,1,.27c2.22.82,4.44,1.63,6.64,2.49a8.88,8.88,0,0,0,5.9.48c2-.6,3.61-1.79,3.91-4,.27-2-1.14-3.06-2.62-4a55.69,55.69,0,0,0-9.33-4.75c-2.27-.9-4.63-1.49-6.93-2.27a34.7,34.7,0,0,1,7.85-1.17A31.93,31.93,0,0,1,84,31.82a24.13,24.13,0,0,1,9.38,7.76c5,6.91,5.65,14.48,3.49,22.52-.44,1.63-1.16,3.13-1.71,4.7-1.51-.91-3-1.88-4.55-2.71a3.7,3.7,0,0,0-4.6.48,7.06,7.06,0,0,0,.54,10.19c.76.62,1.61,1.14,2.41,1.7l-1,1.17c-1.11-.92-2.28-1.79-3.32-2.79a4.11,4.11,0,0,0-6.77,2,6.72,6.72,0,0,0,.49,4.94c.47,1,1.17,1.85,1.73,2.79A8.41,8.41,0,0,1,78,86l-.79-1.25a3.22,3.22,0,0,0-4-1.54A6,6,0,0,0,69.5,87a23.36,23.36,0,0,0-.7,3.72c-2.12.56-4.13,1.52-6.31,1.82a44.11,44.11,0,0,1-4.75.58c-1,0-2.06-.14-3.1,0-1.21.11-1.69-.59-1.29-1.63a3.26,3.26,0,0,0,1.5-.72q8.25-5.48,16.49-11c.62-.42,1.72-.79,1-1.81s-1.46-.13-2.08.28q-8.89,6-17.74,12c-.29.19-.65.32-.72.72-1.17.3-2.17,1.07-3.42,1.2a7.77,7.77,0,0,1-7.22-2.64c-.85-1-1.13-2,.27-3.54a2,2,0,0,0,1-.4L59.78,73.86a9.85,9.85,0,0,0,1.1-.83.87.87,0,0,0,.19-1.23.94.94,0,0,0-1.23-.31,3.89,3.89,0,0,0-.72.44q-6.82,4.59-13.64,9.2a53.89,53.89,0,0,0-5.37,3.77C38,86,36,85.57,34,84.72a6.45,6.45,0,0,1-3.42-3.4,2.2,2.2,0,0,1,.66-2.76c.29-.25.6-.49.89-.74s.56-.28.82-.46c3.05-2,6.12-4.07,9.15-6.16,4.12-2.84,8.35-5.5,12.39-8.45.53-.39.92-.79.47-1.37a1.1,1.1,0,0,0-1.64-.16c-1.43,1.2-3.06,2.12-4.59,3.17-5.46,3.77-11,7.4-16.52,11.1C31.82,75.78,31.28,76,31.07,76.51Z"/><path class="cls-4" d="M60.45,30.23c2.3.79,4.66,1.38,6.93,2.27a55.69,55.69,0,0,1,9.33,4.75c1.48.94,2.88,2,2.62,4-.3,2.22-1.9,3.4-3.91,4a8.88,8.88,0,0,1-5.9-.48c-2.2-.86-4.42-1.67-6.64-2.49a10.33,10.33,0,0,0-1-.27,6.05,6.05,0,0,0-2-.8,32.81,32.81,0,0,0-6.68-2.28c.08,1.13,2.9,5,4.91,5.49C54.75,46.71,53.34,47.68,50,50q-6.17,4.18-12.36,8.34l-12.1,8.18a4.63,4.63,0,0,1-.56.28,16.82,16.82,0,0,1-1.79-4.58c-.43-1.4-.66-2.84-1-4.27a15,15,0,0,1-.06-2.41,23,23,0,0,1,2.18-12.19,24.11,24.11,0,0,1,6.8-8.37,28.09,28.09,0,0,1,14.1-5.72A42.6,42.6,0,0,1,59.4,30C59.75,30.11,60.1,30.17,60.45,30.23Z"/><path class="cls-4" d="M89,76.46c-.81-.56-1.65-1.08-2.41-1.7A7.06,7.06,0,0,1,86,64.57a3.7,3.7,0,0,1,4.6-.48c1.56.83,3,1.8,4.55,2.71,1.46,1.09,1.24,2.6.91,4.06a9,9,0,0,1-2.75,4.66A3.85,3.85,0,0,1,89,76.46Z"/><path class="cls-4" d="M80.12,84.57c-.55-.95-1.24-1.8-1.71-2.8A6.72,6.72,0,0,1,78,76.83a4.11,4.11,0,0,1,6.79-1.95c1,1,2.2,1.88,3.31,2.81a3.47,3.47,0,0,1,.23,3.43,8,8,0,0,1-2.81,3.63C83.55,86.16,82.1,86.09,80.12,84.57Z"/><path class="cls-4" d="M31.07,76.51c.21-.55.75-.73,1.18-1,5.51-3.7,11.06-7.33,16.52-11.1,1.53-1.06,3.16-2,4.59-3.17a1.1,1.1,0,0,1,1.64.16c.44.58.05,1-.47,1.37-4,3-8.28,5.61-12.39,8.45-3,2.09-6.09,4.11-9.15,6.16-.26.17-.55.31-.82.46Z"/><path class="cls-4" d="M68.74,90.63a23.36,23.36,0,0,1,.73-3.72,6,6,0,0,1,3.76-3.76,3.22,3.22,0,0,1,4,1.57L78,86c.58,1.63-.31,2.38-1.64,3.07-1.8.92-3.66,1.66-5.51,2.47A1.38,1.38,0,0,1,68.74,90.63Z"/><path class="cls-4" d="M40.11,84.89a53.89,53.89,0,0,1,5.37-3.77q6.8-4.62,13.64-9.2a3.89,3.89,0,0,1,.72-.44.94.94,0,0,1,1.23.31A.87.87,0,0,1,60.88,73a9.85,9.85,0,0,1-1.1.83L42.42,85.5a2,2,0,0,1-1,.4Z"/><path class="cls-4" d="M51.81,90.89c.08-.41.44-.53.72-.72q8.87-6,17.74-12c.62-.42,1.38-1.29,2.08-.28s-.38,1.4-1,1.81q-8.23,5.51-16.49,11a3.26,3.26,0,0,1-1.5.72Z"/></g></g></svg>